HIERARCHY
ROOT Hips
{
	OFFSET 0.000000 0.000000 0.000000
	CHANNELS 6 Xposition Yposition Zposition Zrotation Yrotation Xrotation 
	JOINT LeftUpLeg_virtual
	{
		OFFSET 0.000000 0.000000 0.000000
		CHANNELS 3 Zrotation Yrotation Xrotation
		JOINT LeftUpLeg
		{
			OFFSET 10.205400 -3.823500 0.155100
			CHANNELS 3 Zrotation Yrotation Xrotation
			JOINT LeftLeg
			{
				OFFSET 0.708757 -12.982077 0.567790
				CHANNELS 3 Zrotation Yrotation Xrotation
				JOINT LeftFoot
				{
					OFFSET -0.708756 -10.717838 -2.184338
					CHANNELS 3 Zrotation Yrotation Xrotation
					JOINT LeftToeBase
					{
						OFFSET 0.108149 -7.191104 7.560241
						CHANNELS 3 Zrotation Yrotation Xrotation
						End Site
						{
							OFFSET 0.000000 0.000000 0.000000
						}
					}
				}
			}
		}
	}
	JOINT RightUpLeg_virtual
	{
		OFFSET 0.000000 0.000000 0.000000
		CHANNELS 3 Zrotation Yrotation Xrotation
		JOINT RightUpLeg
		{
			OFFSET -10.205400 -3.823500 0.005500
			CHANNELS 3 Zrotation Yrotation Xrotation
			JOINT RightLeg
			{
				OFFSET -0.708756 -12.982134 0.610632
				CHANNELS 3 Zrotation Yrotation Xrotation
				JOINT RightFoot
				{
					OFFSET 0.708754 -10.717769 -1.945823
					CHANNELS 3 Zrotation Yrotation Xrotation
					JOINT RightToeBase
					{
						OFFSET -0.108140 -7.191069 7.372968
						CHANNELS 3 Zrotation Yrotation Xrotation
						End Site
						{
							OFFSET 0.000000 0.000000 0.000000
						}
					}
				}
			}
		}
	}
	JOINT Spine_virtual
	{
		OFFSET 0.000000 0.000000 0.000000
		CHANNELS 3 Zrotation Yrotation Xrotation
		JOINT Spine
		{
			OFFSET 0.000000 6.876099 0.125700
			CHANNELS 3 Zrotation Yrotation Xrotation
			JOINT Spine1
			{
				OFFSET 0.000000 8.022060 0.146608
				CHANNELS 3 Zrotation Yrotation Xrotation
				JOINT Spine2
				{
					OFFSET 0.000000 9.168068 0.167552
					CHANNELS 3 Zrotation Yrotation Xrotation
					JOINT Neck_virtual
					{
						OFFSET 0.000000 0.000000 0.000000
						CHANNELS 3 Zrotation Yrotation Xrotation
						JOINT Neck
						{
							OFFSET 0.000000 10.314075 0.188496
							CHANNELS 3 Zrotation Yrotation Xrotation
							JOINT Head
							{
								OFFSET 0.000000 7.643700 -2.377400
								CHANNELS 3 Zrotation Yrotation Xrotation
								End Site
								{
									OFFSET 0.000000 0.000000 0.000000
								}
							}
						}
					}
					JOINT LeftShoulder_virtual
					{
						OFFSET 0.000000 0.000000 0.000000
						CHANNELS 3 Zrotation Yrotation Xrotation
						JOINT LeftShoulder
						{
							OFFSET 4.392200 8.824978 0.174984
							CHANNELS 3 Zrotation Yrotation Xrotation
							JOINT LeftArm
							{
								OFFSET 8.771219 -2.981674 -0.026999
								CHANNELS 3 Zrotation Yrotation Xrotation
								JOINT LeftForeArm
								{
									OFFSET 8.512804 0.000000 -0.000000
									CHANNELS 3 Zrotation Yrotation Xrotation
									JOINT LeftHand
									{
										OFFSET 18.484802 0.000000 -0.000000
										CHANNELS 3 Zrotation Yrotation Xrotation
										End Site
										{
											OFFSET 0.000000 0.000000 0.000000
										}
									}
								}
							}
						}
					}
					JOINT RightShoulder_virtual
					{
						OFFSET 0.000000 0.000000 0.000000
						CHANNELS 3 Zrotation Yrotation Xrotation
						JOINT RightShoulder
						{
							OFFSET -4.392200 8.824993 0.141379
							CHANNELS 3 Zrotation Yrotation Xrotation
							JOINT RightArm
							{
								OFFSET -8.771282 -2.981682 -0.094208
								CHANNELS 3 Zrotation Yrotation Xrotation
								JOINT RightForeArm
								{
									OFFSET -8.494598 0.000000 0.000000
									CHANNELS 3 Zrotation Yrotation Xrotation
									JOINT RightHand
									{
										OFFSET -18.483803 0.000000 0.000001
										CHANNELS 3 Zrotation Yrotation Xrotation
										End Site
										{
											OFFSET 0.000000 0.000000 0.000000
										}
									}
								}
							}
						}
					}
				}
			}
		}
	}
}
MOTION
Frames: 11
Frame Time: 0.033333
6.920301 36.325462 12.046756 179.743204 8.814901 179.919477 -1.599544 -2.959189 9.324337 -4.622967 0.761056 -16.424894 7.773063 8.414207 18.614559 -4.771134 -2.631005 5.313559 0.000000 0.000000 0.000000 2.490920 -2.360575 7.830658 -3.293469 2.894311 -12.671895 -7.317854 4.983729 12.760568 8.461083 3.439833 8.881716 0.000000 0.000000 0.000000 1.480719 -0.083946 -3.907346 -2.020340 3.402393 -5.621031 1.663169 -2.252514 3.994452 0.001384 -0.026793 -0.004080 1.471561 -0.549944 6.201723 2.318797 -7.617736 22.845405 0.000000 0.000000 0.000000 2.433193 0.207948 2.843435 -7.413083 -13.328604 -0.217489 -37.909951 6.133564 12.443096 2.125603 -53.755843 2.299474 0.000000 0.000000 0.000000 -0.979183 1.537887 1.804045 7.154370 -3.174470 -14.547763 5.933297 19.273803 -56.942256 -176.670725 55.688137 178.878993 0.000000 0.000000 0.000000 
6.868941 36.326900 12.031988 179.759637 9.224848 179.867827 -1.570803 -2.972613 9.499509 -4.884269 0.959629 -16.397440 7.970182 8.579090 18.545987 -4.769152 -2.601385 5.261635 0.000000 0.000000 0.000000 2.500611 -2.356865 7.933547 -3.530949 3.461971 -12.835380 -7.382395 4.967638 12.583246 8.620315 3.434484 9.071565 0.000000 0.000000 0.000000 1.547430 -0.123139 -3.541355 -2.059620 3.113496 -5.757097 1.618475 -2.019276 3.895437 0.033043 -0.024740 0.009674 1.358146 -0.459480 6.042036 2.413309 -7.748921 22.866519 0.000000 0.000000 0.000000 2.348904 0.265107 2.691795 -8.314138 -13.817095 -0.102196 -40.095970 6.762832 18.944015 1.688642 -49.067666 2.488283 0.000000 0.000000 0.000000 -1.100974 1.527849 1.663874 6.972373 -3.124893 -14.283416 6.672145 20.041098 -56.568252 -176.146658 56.064635 179.671582 0.000000 0.000000 0.000000 
6.814932 36.325481 12.002733 179.717140 9.591834 179.896855 -1.579622 -2.989355 9.673050 -5.182494 1.140500 -16.502365 8.149993 8.755140 18.559685 -4.785733 -2.588516 5.199168 0.000000 0.000000 0.000000 2.482213 -2.374631 8.017548 -3.740940 3.657756 -12.999462 -7.370849 5.210458 12.412932 8.797390 3.461280 9.192525 0.000000 0.000000 0.000000 1.541766 -0.056177 -3.265028 -2.154692 2.886025 -5.965737 1.582828 -2.105568 3.777604 0.067179 0.020074 -0.009728 1.281508 -0.391372 6.006650 2.527177 -7.831973 22.933689 0.000000 0.000000 0.000000 2.320591 0.323083 2.649161 -9.129895 -14.006090 0.132511 -42.723714 7.853121 24.949650 1.543611 -45.876806 2.526345 0.000000 0.000000 0.000000 -1.156789 1.628092 1.621078 6.781094 -3.111895 -14.102018 7.379631 20.718201 -56.168259 -175.614682 56.451575 -179.517520 0.000000 0.000000 0.000000 
6.756492 36.320190 11.963367 179.749747 9.864824 179.832720 -1.551553 -3.014076 9.823549 -5.445613 1.311294 -16.454872 8.347117 8.812156 18.558649 -4.791046 -2.559580 5.110758 0.000000 0.000000 0.000000 2.489005 -2.455364 8.149702 -3.907496 3.974052 -13.068326 -7.422405 5.218759 12.297515 8.962397 3.513561 9.278642 0.000000 0.000000 0.000000 1.585400 0.209465 -2.930786 -2.208580 2.615980 -6.121563 1.519984 -2.111652 3.703832 0.014801 -0.013059 0.000442 1.317931 -0.486174 5.913670 2.694868 -7.893706 22.986899 0.000000 0.000000 0.000000 2.308910 0.298426 2.645473 -9.853022 -13.998748 0.213494 -45.535215 9.507692 29.731035 1.548293 -43.725683 2.440526 0.000000 0.000000 0.000000 -1.165765 1.565240 1.529395 6.670224 -3.234549 -13.842149 8.133370 21.397600 -55.794460 -175.061929 56.662792 -178.680262 0.000000 0.000000 0.000000 
6.704348 36.313244 11.913875 179.752575 10.056408 179.838758 -1.553711 -3.065144 9.901227 -5.701807 1.427874 -16.442726 8.544258 8.847298 18.648858 -4.791878 -2.515736 4.998030 0.000000 0.000000 0.000000 2.436447 -2.510586 8.231972 -4.072052 4.289345 -13.146064 -7.483627 5.103950 12.185027 9.100428 3.575481 9.344693 0.000000 0.000000 0.000000 1.611322 0.046319 -2.675586 -2.278008 2.431032 -6.283967 1.491731 -2.086254 3.661622 -0.013076 0.002913 0.015562 1.273476 -0.396297 5.868554 2.759569 -7.947442 22.980499 0.000000 0.000000 0.000000 2.327901 0.369340 2.570155 -10.388941 -13.565709 0.206630 -48.568396 11.640802 32.556172 1.536508 -42.366728 2.423250 0.000000 0.000000 0.000000 -1.188014 1.639119 1.536109 6.543977 -3.408869 -13.747526 8.759841 22.088693 -55.574261 -174.849756 56.877034 -178.187819 0.000000 0.000000 0.000000 
6.662796 36.310516 11.869706 179.800823 10.276868 179.918808 -1.518986 -3.058616 9.936067 -5.928477 1.526280 -16.512478 8.725935 8.814176 18.789231 -4.763845 -2.435343 4.846321 0.000000 0.000000 0.000000 2.445670 -2.515875 8.238932 -4.194370 4.422349 -13.201113 -7.487801 5.038898 12.057610 9.254296 3.676833 9.443876 0.000000 0.000000 0.000000 1.645197 0.199360 -2.473562 -2.355529 2.246757 -6.520942 1.476511 -2.107603 3.648105 -0.013338 -0.047001 0.014450 1.218707 -0.365964 5.912716 2.819861 -7.999296 22.956010 0.000000 0.000000 0.000000 2.314678 0.399742 2.629654 -10.758556 -12.964058 0.023883 -51.523955 13.984193 33.698866 1.733994 -41.684293 2.252829 0.000000 0.000000 0.000000 -1.240369 1.706539 1.614211 6.366877 -3.600048 -13.648455 9.096011 22.799632 -55.539062 -174.439097 57.052116 -177.547735 0.000000 0.000000 0.000000 
6.638281 36.312752 11.841070 179.763899 10.421543 179.908726 -1.540188 -3.165436 10.005905 -6.144734 1.550658 -16.426456 8.861232 8.880077 18.724747 -4.741289 -2.339851 4.784610 0.000000 0.000000 0.000000 2.407657 -2.552890 8.230279 -4.233259 4.235428 -13.188676 -7.430903 5.048619 11.904231 9.494934 3.867318 9.545121 0.000000 0.000000 0.000000 1.633962 0.060161 -2.257387 -2.470416 2.246053 -6.727986 1.474223 -2.048071 3.657451 0.002909 0.032412 0.010713 1.235026 -0.422760 6.026448 2.926823 -7.976037 22.922533 0.000000 0.000000 0.000000 2.312885 0.387584 2.789667 -10.859426 -12.296399 -0.283297 -54.273192 16.217516 33.481335 2.013517 -41.505393 2.060346 0.000000 0.000000 0.000000 -1.240603 1.760132 1.704755 6.166360 -3.907541 -13.490310 9.227595 23.548455 -55.382821 -173.951968 57.197814 -176.853569 0.000000 0.000000 0.000000 
6.632330 36.319118 11.825293 179.842815 10.433710 179.822393 -1.482082 -3.318797 10.104412 -6.263628 1.543388 -16.286340 8.958754 8.811096 18.639622 -4.696921 -2.214443 4.775213 0.000000 0.000000 0.000000 2.417679 -2.700363 8.235679 -4.196359 3.729534 -13.096232 -7.413983 5.028571 11.713767 9.740393 4.089067 9.676855 0.000000 0.000000 0.000000 1.663307 -0.185789 -2.037679 -2.557108 2.252801 -6.901676 1.482063 -2.030054 3.742624 0.025949 0.056350 0.039123 1.152813 -0.332088 6.106667 2.938879 -7.962056 22.875507 0.000000 0.000000 0.000000 2.308235 0.445588 2.903230 -10.707238 -11.598016 -0.534978 -56.656528 18.168629 32.672746 2.386165 -41.833717 1.804098 0.000000 0.000000 0.000000 -1.315559 1.737515 1.829812 5.989256 -4.093234 -13.445098 9.280614 24.257866 -55.474943 -174.094009 57.348222 -176.859074 0.000000 0.000000 0.000000 
6.638895 36.327564 11.813551 179.720896 10.347932 179.826204 -1.599266 -3.546605 10.128721 -6.315362 1.418919 -16.240067 9.061279 8.781922 18.567133 -4.598544 -2.052595 4.726040 0.000000 0.000000 0.000000 2.264296 -2.869262 8.186993 -4.178229 3.358986 -13.018300 -7.318461 4.868561 11.523094 9.913098 4.309083 9.837354 0.000000 0.000000 0.000000 1.542514 -0.169896 -1.996965 -2.729850 2.218462 -7.091581 1.449414 -2.079014 3.849369 0.019244 0.011195 0.001876 1.173864 -0.373416 6.341640 2.964218 -7.938909 22.828470 0.000000 0.000000 0.000000 2.350612 0.416881 3.118156 -10.345180 -10.873144 -0.879782 -58.539817 19.865679 31.856023 2.697636 -42.519693 1.627305 0.000000 0.000000 0.000000 -1.263488 1.768294 2.111648 5.794385 -4.229001 -13.406921 9.273978 24.903058 -55.111208 -173.801581 57.535943 -176.467172 0.000000 0.000000 0.000000 
6.652658 36.334137 11.797217 179.742643 10.301667 179.837037 -1.589273 -3.677259 10.164614 -6.305201 1.265950 -16.170691 9.125400 8.727802 18.491711 -4.495483 -1.895409 4.720332 0.000000 0.000000 0.000000 2.236916 -2.990100 8.118356 -4.176822 3.036065 -12.892579 -7.209544 4.682700 11.375912 10.084843 4.357002 10.010547 0.000000 0.000000 0.000000 1.522288 -0.267388 -2.009511 -2.854027 2.286585 -7.278834 1.420278 -2.050776 3.977059 0.008488 0.032358 0.012556 1.140885 -0.335777 6.564001 2.939672 -7.910273 22.817020 0.000000 0.000000 0.000000 2.398146 0.351445 3.329315 -9.875191 -10.319288 -1.221685 -59.833885 21.253513 31.210430 2.823259 -43.292311 1.663200 0.000000 0.000000 0.000000 -1.272909 1.755218 2.311693 5.627594 -4.339400 -13.353781 9.256566 25.393621 -54.785074 -173.702106 57.675278 -176.325746 0.000000 0.000000 0.000000 
6.669502 36.338123 11.776247 179.803009 10.245999 179.894315 -1.587325 -3.703108 10.280148 -6.207481 0.973232 -16.404277 9.160990 8.587365 18.672457 -4.399549 -1.788654 4.625270 0.000000 0.000000 0.000000 2.276267 -3.027352 8.010103 -4.159654 2.773582 -12.761173 -7.081339 4.485252 11.309082 10.133172 4.544045 10.124868 0.000000 0.000000 0.000000 1.498075 -0.341569 -2.114077 -2.904279 2.378161 -7.488572 1.444888 -2.016558 4.104320 0.006561 0.061964 0.010157 1.070568 -0.311083 6.785367 2.968285 -7.886672 22.810957 0.000000 0.000000 0.000000 2.355578 0.451836 3.590178 -9.426202 -9.918320 -1.502829 -60.514957 22.120556 31.212571 3.078103 -43.879464 1.570892 0.000000 0.000000 0.000000 -1.366856 1.799731 2.546760 5.558989 -4.333840 -13.277031 9.341873 25.695448 -54.410151 -173.733211 57.702230 -176.359241 0.000000 0.000000 0.000000 
